<svg width="38" height="37" viewBox="0 0 38 37" fill="none" xmlns="http://www.w3.org/2000/svg">
<g id="Group 1171279670">
<g id="Mask group">
<mask id="mask0_1_413546" style="mask-type:alpha" maskUnits="userSpaceOnUse" x="1" y="1" width="36" height="36">
<ellipse id="Ellipse 10433" cx="19" cy="18.8455" rx="18" ry="17.6541" fill="#F4ABA4"/>
</mask>
<g mask="url(#mask0_1_413546)">
<ellipse id="Ellipse 10434" cx="19" cy="18.8455" rx="18" ry="17.6541" fill="white"/>
<g id="Group">
<path id="Vector" d="M20.1578 11.645C19.944 11.8379 19.7196 12.0187 19.4858 12.1867C19.0812 12.4582 18.6264 12.6455 18.1486 12.7406C17.9409 12.7813 17.7237 12.799 17.2906 12.8329C16.2032 12.9198 15.6588 12.9632 15.2054 13.1234C14.687 13.3065 14.2161 13.6033 13.8273 13.992C13.4385 14.3808 13.1417 14.8517 12.9587 15.3702C12.7985 15.8236 12.755 16.368 12.6681 17.4554C12.6533 17.7428 12.6225 18.0293 12.5758 18.3133C12.4808 18.7912 12.2935 19.246 12.022 19.6505C11.9038 19.827 11.7627 19.9926 11.4803 20.3225C10.773 21.1533 10.4187 21.5687 10.211 22.0032C9.73176 23.0078 9.73176 24.1753 10.211 25.1798C10.4187 25.6143 10.773 26.0297 11.4803 26.8605C11.7627 27.1904 11.9038 27.356 12.022 27.5325C12.2935 27.937 12.4808 28.3918 12.5758 28.8697C12.6166 29.0774 12.6342 29.2946 12.6681 29.7276C12.755 30.815 12.7985 31.3594 12.9587 31.8128C13.1417 32.3313 13.4385 32.8022 13.8273 33.191C14.2161 33.5797 14.687 33.8765 15.2054 34.0596C15.6588 34.2198 16.2032 34.2632 17.2906 34.3501C17.7237 34.3841 17.9409 34.4017 18.1486 34.4424C18.6264 34.5375 19.0812 34.7262 19.4858 34.9963C19.6623 35.1144 19.8279 35.2556 20.1578 35.538C20.9886 36.2453 21.404 36.5996 21.8384 36.8073C22.843 37.2865 24.0105 37.2865 25.0151 36.8073C25.4495 36.5996 25.8649 36.2453 26.6957 35.538C27.0256 35.2556 27.1913 35.1144 27.3677 34.9963C27.7723 34.7248 28.2271 34.5375 28.7049 34.4424C28.9126 34.4017 29.1298 34.3841 29.5629 34.3501C30.6503 34.2632 31.1947 34.2198 31.6481 34.0596C32.1666 33.8765 32.6374 33.5797 33.0262 33.191C33.415 32.8022 33.7118 32.3313 33.8949 31.8128C34.055 31.3594 34.0985 30.815 34.1854 29.7276C34.2193 29.2946 34.237 29.0774 34.2777 28.8697C34.3727 28.3918 34.5614 27.937 34.8316 27.5325C34.9497 27.356 35.0909 27.1904 35.3732 26.8605C36.0805 26.0297 36.4348 25.6143 36.6425 25.1798C37.1218 24.1753 37.1218 23.0078 36.6425 22.0032C36.4348 21.5687 36.0805 21.1533 35.3732 20.3225C35.18 20.109 34.9992 19.8846 34.8316 19.6505C34.5603 19.2458 34.372 18.7913 34.2777 18.3133C34.231 18.0293 34.2002 17.7428 34.1854 17.4554C34.0985 16.368 34.055 15.8236 33.8949 15.3702C33.7118 14.8517 33.415 14.3808 33.0262 13.992C32.6374 13.6033 32.1666 13.3065 31.6481 13.1234C31.1947 12.9632 30.6503 12.9198 29.5629 12.8329C29.2754 12.8181 28.989 12.7873 28.7049 12.7406C28.2269 12.6462 27.7724 12.4579 27.3677 12.1867C27.1339 12.0187 26.9095 11.8379 26.6957 11.645C25.8649 10.9377 25.4495 10.5834 25.0151 10.3757C24.5192 10.1387 23.9764 10.0156 23.4268 10.0156C22.8771 10.0156 22.3344 10.1387 21.8384 10.3757C21.404 10.5834 20.9886 10.9377 20.1578 11.645Z" fill="url(#paint0_linear_1_413546)"/>
<path id="Vector_2" d="M27.5458 19.4822C27.6269 19.5632 27.6912 19.6593 27.7351 19.7652C27.779 19.8711 27.8016 19.9845 27.8016 20.0991C27.8016 20.2137 27.779 20.3272 27.7351 20.4331C27.6912 20.5389 27.6269 20.6351 27.5458 20.7161L20.5451 27.7005C20.3808 27.8645 20.1581 27.9567 19.9259 27.9567C19.6937 27.9567 19.4709 27.8645 19.3066 27.7005C19.2255 27.6195 19.1612 27.5233 19.1173 27.4174C19.0734 27.3116 19.0508 27.1981 19.0508 27.0835C19.0508 26.9689 19.0734 26.8554 19.1173 26.7496C19.1612 26.6437 19.2255 26.5475 19.3066 26.4666L26.3084 19.4822C26.4727 19.3185 26.6952 19.2266 26.9271 19.2266C27.159 19.2266 27.3815 19.3185 27.5458 19.4822ZM26.3445 27.6655C26.5017 27.6726 26.6588 27.6477 26.8061 27.5923C26.9535 27.537 27.0881 27.4524 27.2019 27.3436C27.3156 27.2348 27.4062 27.1041 27.468 26.9594C27.5299 26.8146 27.5618 26.6589 27.5618 26.5015C27.5618 26.3441 27.5299 26.1883 27.468 26.0436C27.4062 25.8988 27.3156 25.7681 27.2019 25.6593C27.0881 25.5505 26.9535 25.4659 26.8061 25.4106C26.6588 25.3553 26.5017 25.3304 26.3445 25.3374C26.1873 25.3304 26.0302 25.3553 25.8829 25.4106C25.7355 25.4659 25.6009 25.5505 25.4871 25.6593C25.3733 25.7681 25.2828 25.8988 25.2209 26.0436C25.1591 26.1883 25.1272 26.3441 25.1272 26.5015C25.1272 26.6589 25.1591 26.8146 25.2209 26.9594C25.2828 27.1041 25.3733 27.2348 25.4871 27.3436C25.6009 27.4524 25.7355 27.537 25.8829 27.5923C26.0302 27.6477 26.1873 27.6726 26.3445 27.6655ZM20.5091 21.8452C20.6663 21.8523 20.8234 21.8274 20.9707 21.772C21.1181 21.7167 21.2527 21.6321 21.3665 21.5233C21.4802 21.4145 21.5708 21.2838 21.6326 21.1391C21.6945 20.9943 21.7264 20.8386 21.7264 20.6812C21.7264 20.5238 21.6945 20.368 21.6326 20.2233C21.5708 20.0785 21.4802 19.9478 21.3665 19.839C21.2527 19.7302 21.1181 19.6456 20.9707 19.5903C20.8234 19.535 20.6663 19.5101 20.5091 19.5171C20.3518 19.5101 20.1948 19.535 20.0474 19.5903C19.9001 19.6456 19.7654 19.7302 19.6517 19.839C19.5379 19.9478 19.4474 20.0785 19.3855 20.2233C19.3237 20.368 19.2918 20.5238 19.2918 20.6812C19.2918 20.8386 19.3237 20.9943 19.3855 21.1391C19.4474 21.2838 19.5379 21.4145 19.6517 21.5233C19.7654 21.6321 19.9001 21.7167 20.0474 21.772C20.1948 21.8274 20.3518 21.8523 20.5091 21.8452Z" fill="white"/>
</g>
</g>
</g>
<path id="Vector_3" d="M13.053 7.29793C11.694 9.09274 9.05539 9.32332 7.78803 7.24356C11.2615 6.80288 11.5015 0.586878 14.7556 1.86569C14.2207 2.06243 13.8186 2.11637 13.5298 2.44498C13.1149 2.91693 13.0139 3.50172 12.7233 4.10103C12.1422 5.29968 11.5376 6.57781 9.84749 7.36372C11.6357 6.53217 12.3685 5.76205 12.9489 4.56495C13.2391 3.96639 13.512 3.41453 13.8875 2.98729C14.1487 2.69018 14.4564 2.45062 14.8648 2.28854L14.8631 2.28418C14.9963 2.23088 15.1263 2.19208 15.2519 2.16635C15.2831 2.15877 15.3148 2.15144 15.347 2.14458L15.3569 2.14773C15.7278 2.09245 16.0591 2.15366 16.3301 2.29935C16.1768 2.21697 15.9994 2.16656 15.7952 2.16434C13.5928 2.44516 14.5052 5.3801 13.053 7.29793Z" fill="#D14A61"/>
<path id="Ellipse 10433_2" d="M3.0602 10.6365C1.74455 13.0889 1 15.8819 1 18.8455C1 28.5955 9.05887 36.4995 19 36.4995C28.9411 36.4995 37 28.5955 37 18.8455C37 9.0954 28.9411 1.19141 19 1.19141C17.2039 1.19141 15.4692 1.44942 13.8324 1.92972" stroke="#D14A61" stroke-width="0.5" stroke-linecap="round" stroke-linejoin="round"/>
</g>
<defs>
<linearGradient id="paint0_linear_1_413546" x1="9.85156" y1="23.5912" x2="36.0565" y2="28.5686" gradientUnits="userSpaceOnUse">
<stop stop-color="#FF001F"/>
<stop offset="0.619792" stop-color="#F98DAC"/>
<stop offset="0.989583" stop-color="#FDD7E4"/>
</linearGradient>
</defs>
</svg>
