<svg xmlns="http://www.w3.org/2000/svg" xmlns:xlink="http://www.w3.org/1999/xlink" width="38" height="38.058" viewBox="0 0 38 38.058">
  <defs>
    <clipPath id="clip-path">
      <circle id="Ellipse_24" data-name="Ellipse 24" cx="19" cy="19" r="19" transform="translate(4952 2631)" fill="#fff"/>
    </clipPath>
    <linearGradient id="linear-gradient" y1="0.5" x2="1" y2="0.5" gradientUnits="objectBoundingBox">
      <stop offset="0" stop-color="#ee3738"/>
      <stop offset="0.533" stop-color="#f67b94"/>
      <stop offset="1" stop-color="#fdc4d5"/>
    </linearGradient>
  </defs>
  <g id="Group_311" data-name="Group 311" transform="translate(-5032 -2640)">
    <g id="Mask_Group_130" data-name="Mask Group 130" transform="translate(80 9)" clip-path="url(#clip-path)">
      <g id="Group_309" data-name="Group 309" transform="translate(-39 -39.771)">
        <path id="Path_141" data-name="Path 141" d="M5015.966,2721.8a7.512,7.512,0,0,0-1.25-3.928,7.4,7.4,0,0,0-3.437-2.9,3.051,3.051,0,0,0-2.947.4c-.893.848-1.521,1.653-1.205,2.991a5.714,5.714,0,0,0,3.3,3.437,7.215,7.215,0,0,0,4.286.4C5015.243,2722.063,5015.966,2721.8,5015.966,2721.8Z" transform="translate(0 -32)" fill="#d14a61" stroke="#d14a61" stroke-linecap="round" stroke-linejoin="round" stroke-width="1"/>
        <path id="Path_142" data-name="Path 142" d="M5007.044,2721.8a7.512,7.512,0,0,1,1.25-3.928,7.4,7.4,0,0,1,3.437-2.9,3.051,3.051,0,0,1,2.947.4c.893.848,1.521,1.653,1.205,2.991a5.714,5.714,0,0,1-3.3,3.437,7.215,7.215,0,0,1-4.286.4C5007.768,2722.063,5007.044,2721.8,5007.044,2721.8Z" transform="translate(10 -32)" fill="#d14a61" stroke="#d14a61" stroke-linecap="round" stroke-linejoin="round" stroke-width="1"/>
        <rect id="Rectangle_190" data-name="Rectangle 190" width="28" height="7" rx="2" transform="translate(5003 2689)" fill="url(#linear-gradient)"/>
        <rect id="Rectangle_191" data-name="Rectangle 191" width="23" height="12" rx="1" transform="translate(5005 2697)" fill="url(#linear-gradient)"/>
      </g>
    </g>
    <path id="Ellipse_10433" data-name="Ellipse 10433" d="M19,36.25a18.439,18.439,0,0,1-7.1-1.406,18.213,18.213,0,0,1-5.8-3.836,17.829,17.829,0,0,1-3.912-5.691,17.641,17.641,0,0,1,.655-15.3.25.25,0,0,1,.441.236,17.171,17.171,0,0,0-2.03,8.091A17.6,17.6,0,0,0,19,35.75a17.6,17.6,0,0,0,17.75-17.4A17.6,17.6,0,0,0,19,.941a18.094,18.094,0,0,0-5.1.728.25.25,0,1,1-.141-.48,18.664,18.664,0,0,1,12.34.658,18.212,18.212,0,0,1,5.8,3.836,17.829,17.829,0,0,1,3.912,5.691,17.649,17.649,0,0,1,0,13.941A17.829,17.829,0,0,1,31.9,31.007a18.213,18.213,0,0,1-5.8,3.836A18.439,18.439,0,0,1,19,36.25Z" transform="translate(5032.5 2641.809)" fill="#d14a61"/>
    <path id="Vector" d="M6.055,5.8A3.111,3.111,0,0,1,.79,5.744C4.263,5.3,4.5-.913,7.758.366c-.535.2-.937.251-1.226.579A6.778,6.778,0,0,0,5.725,2.6,5.886,5.886,0,0,1,2.849,5.864a5.518,5.518,0,0,0,3.1-2.8,7,7,0,0,1,.939-1.578,2.5,2.5,0,0,1,.977-.7l0,0A2.279,2.279,0,0,1,8.254.666l.1-.022.01,0A1.548,1.548,0,0,1,9.332.8,1.14,1.14,0,0,0,8.8.664C6.595.945,7.507,3.88,6.055,5.8Z" transform="translate(5039.71 2642.807)" fill="#d14a61"/>
  </g>
</svg>
