<svg width="120" height="120" viewBox="0 0 120 120" fill="none" xmlns="http://www.w3.org/2000/svg">
<ellipse cx="59.9998" cy="59.9998" rx="59.9998" ry="59.9998" fill="#FAEBED"/>
<mask id="mask0_14930_133310" style="mask-type:alpha" maskUnits="userSpaceOnUse" x="0" y="0" width="120" height="120">
<ellipse cx="59.9998" cy="59.9998" rx="59.9998" ry="59.9998" fill="#F4ABA4"/>
</mask>
<g mask="url(#mask0_14930_133310)">
<path d="M113.22 95.3185L4.9043 94.7969" stroke="#441508" stroke-width="0.277778" stroke-miterlimit="10" stroke-linecap="round"/>
<path d="M103.746 42.6435C102.572 47.8201 97.021 50.9596 94.1916 49.468C91.6475 48.1248 90.634 43.3526 91.8083 40.1328C94.0511 33.967 100.857 34.389 102.104 30.7905C102.104 30.7905 101.628 32.7919 102.178 34.2977C102.728 35.8036 104.299 40.2048 103.746 42.6435Z" fill="#E95649"/>
<g style="mix-blend-mode:overlay">
<path d="M103.746 42.6435C102.572 47.8201 97.021 50.9596 94.1916 49.468C91.6475 48.1248 90.634 43.3526 91.8083 40.1328C94.0511 33.967 100.857 34.389 102.104 30.7905C102.104 30.7905 101.628 32.7919 102.178 34.2977C102.728 35.8036 104.299 40.2048 103.746 42.6435Z" fill="url(#paint0_linear_14930_133310)"/>
</g>
<path d="M95.7643 42.3068C96.8294 39.1457 97.7829 37.3961 98.9329 37.8174C100.083 38.2388 96.9707 45.3412 96.342 46.0699C95.8447 46.6494 94.1106 47.2088 95.7643 42.3068Z" fill="#FAD4D1"/>
<path d="M86.6469 83.3656C86.6469 83.3656 88.9419 60.4101 96.6068 43.56" stroke="#441508" stroke-width="0.277778" stroke-miterlimit="10" stroke-linecap="round"/>
<path d="M31.3386 56.7818H29.375V41.3481C29.3946 37.2835 30.0295 29.9855 36.9609 28.3885C39.3958 27.8256 41.3855 28.1659 43.0218 29.3965C46.1308 31.7266 46.3534 36.1053 46.3665 36.3017V49.5755H44.4291V36.6682C44.4291 36.6682 44.0887 32.7934 41.7586 31.059C40.6328 30.2146 39.1078 29.9986 37.3013 30.4175C34.441 31.0786 32.7131 32.9505 31.8295 36.1642C31.1291 38.7038 31.4302 41.4005 31.3386 41.3023V56.7818Z" fill="#B82E45"/>
<path d="M22.6836 49.9614L51.2667 42.2969L55.7044 43.763L60.8948 43.3638L35.3879 50.6552L22.6836 49.9614Z" fill="#B82E45"/>
<g style="mix-blend-mode:overlay">
<path d="M22.6836 49.9614L51.2667 42.2969L55.7044 43.763L60.8948 43.3638L35.3879 50.6552L22.6836 49.9614Z" fill="url(#paint1_linear_14930_133310)"/>
</g>
<path d="M37.4489 103.894L30.8055 101.518C30.4127 101.381 29.9873 101.361 29.588 101.466L24.594 102.775C23.645 103.023 22.709 102.304 22.709 101.322V49.9874L32.5072 49.5488C32.7494 49.5358 32.9916 49.5881 33.2141 49.6994L35.3741 50.7924L37.4489 103.894Z" fill="#B82E45"/>
<g style="mix-blend-mode:overlay">
<path d="M37.4489 103.894L30.8055 101.518C30.4127 101.381 29.9873 101.361 29.588 101.466L24.594 102.775C23.645 103.023 22.709 102.304 22.709 101.322V49.9874L32.5072 49.5488C32.7494 49.5358 32.9916 49.5881 33.2141 49.6994L35.3741 50.7924L37.4489 103.894Z" fill="url(#paint2_linear_14930_133310)"/>
</g>
<path d="M35.373 50.7851V101.805C35.373 103.245 36.7934 104.247 38.1482 103.769L59.4923 96.2025C59.8981 96.0588 60.2495 95.7928 60.498 95.4412C60.7465 95.0895 60.8799 94.6695 60.8798 94.2389V43.4609L35.373 50.7851Z" fill="#D14A61"/>
<g style="mix-blend-mode:overlay">
<path d="M35.373 50.7851V101.805C35.373 103.245 36.7934 104.247 38.1482 103.769L59.4923 96.2025C59.8981 96.0588 60.2495 95.7928 60.498 95.4412C60.7465 95.0895 60.8799 94.6695 60.8798 94.2389V43.4609L35.373 50.7851Z" fill="url(#paint3_linear_14930_133310)"/>
</g>
<path d="M39.862 58.733H37.8985V44.4971C37.8985 44.0913 37.8199 40.8187 38.6512 37.3105C39.862 32.2248 42.6438 29.1289 46.5906 28.3631C49.3854 27.8199 51.6697 28.2715 53.3256 29.718C56.3037 32.3099 56.0942 37.0748 56.0812 37.2777L56.1008 54.8059H54.2616V37.2385C54.2616 37.1468 54.3139 33.187 52.1016 31.2692C50.9497 30.2743 49.2283 29.9798 47.1011 30.3921C39.5021 31.8714 39.8555 44.3335 39.862 44.4644V58.733Z" fill="#B82E45"/>
<path d="M54.215 62.3734L44.672 65.4234C44.4547 65.4863 44.2258 65.4979 44.0033 65.4571C43.7807 65.4163 43.5707 65.3244 43.3898 65.1886C43.2089 65.0527 43.0621 64.8767 42.9609 64.6744C42.8596 64.4721 42.8069 64.249 42.8066 64.0228V61.5552C42.8066 60.9072 43.2386 60.3312 43.8604 60.1545L53.4034 57.1044C53.6207 57.0415 53.8496 57.03 54.0722 57.0708C54.2947 57.1115 54.5047 57.2034 54.6856 57.3393C54.8665 57.4751 55.0134 57.6512 55.1146 57.8535C55.2158 58.0558 55.2686 58.2789 55.2688 58.5051V60.9727C55.2688 61.6206 54.8368 62.1901 54.215 62.3734Z" fill="#FAD4D1"/>
<path d="M35.3672 94.5675V92.4076L53.5106 86.2812V88.4215L35.3672 94.5675Z" fill="#FAD4D1"/>
<path d="M85.3207 65.198H86.9922V52.0605C86.9755 48.6006 86.435 42.3884 80.5349 41.029C78.4623 40.5498 76.7685 40.8395 75.3757 41.887C72.7292 43.8704 72.5398 47.5977 72.5286 47.7649V59.0638H74.1778V48.0769C74.1778 48.0769 74.4675 44.7786 76.451 43.3021C77.4093 42.5834 78.7074 42.3996 80.2451 42.7561C82.6799 43.3188 84.1507 44.9123 84.9029 47.6479C85.499 49.8096 85.2427 52.1051 85.3207 52.0215V65.198Z" fill="#B82E45"/>
<path d="M92.707 59.4695L68.3764 52.9453L64.5989 54.1933L60.1808 53.8535L81.8928 60.0601L92.707 59.4695Z" fill="#B82E45"/>
<g style="mix-blend-mode:overlay">
<path d="M92.707 59.4695L68.3764 52.9453L64.5989 54.1933L60.1808 53.8535L81.8928 60.0601L92.707 59.4695Z" fill="url(#paint4_linear_14930_133310)"/>
</g>
<path d="M80.1386 105.269L85.7936 103.247C86.1279 103.13 86.4901 103.113 86.8299 103.202L91.081 104.317C91.8888 104.528 92.6855 103.916 92.6855 103.08V59.3828L84.3451 59.0095C84.1389 58.9983 83.9328 59.0429 83.7433 59.1376L81.9048 60.0681L80.1386 105.269Z" fill="#D14A61"/>
<g style="mix-blend-mode:overlay">
<path d="M80.1386 105.269L85.7936 103.247C86.1279 103.13 86.4901 103.113 86.8299 103.202L91.081 104.317C91.8888 104.528 92.6855 103.916 92.6855 103.08V59.3828L84.3451 59.0095C84.1389 58.9983 83.9328 59.0429 83.7433 59.1376L81.9048 60.0681L80.1386 105.269Z" fill="url(#paint5_linear_14930_133310)"/>
</g>
<path d="M81.9043 60.0782V103.508C81.9043 104.734 80.6953 105.586 79.542 105.179L61.3734 98.7387C61.0279 98.6164 60.7288 98.39 60.5173 98.0907C60.3057 97.7913 60.1922 97.4338 60.1922 97.0673V53.8438L81.9043 60.0782Z" fill="#B82E45"/>
<g style="mix-blend-mode:overlay">
<path d="M81.9043 60.0782V103.508C81.9043 104.734 80.6953 105.586 79.542 105.179L61.3734 98.7387C61.0279 98.6164 60.7288 98.39 60.5173 98.0907C60.3057 97.7913 60.1922 97.4338 60.1922 97.0673V53.8438L81.9043 60.0782Z" fill="url(#paint6_linear_14930_133310)"/>
</g>
<path d="M78.1081 66.8613H79.7796V54.7434C79.7796 54.3979 79.8464 51.6122 79.1388 48.6259C78.1081 44.2969 75.7402 41.6616 72.3806 41.0097C70.0016 40.5473 68.0572 40.9317 66.6476 42.163C64.1126 44.3693 64.2909 48.4253 64.302 48.598L64.2853 63.5184H65.8509V48.5646C65.8509 48.4866 65.8063 45.1159 67.6895 43.4834C68.67 42.6366 70.1353 42.3859 71.9461 42.7369C78.4145 43.996 78.1137 54.6041 78.1081 54.7155V66.8613Z" fill="#B82E45"/>
<path d="M81.9012 97.3085V95.4699L67.5966 90.6398C67.0369 90.4508 66.457 90.8671 66.457 91.4578C66.457 91.8279 66.6929 92.1568 67.0434 92.2755L81.9012 97.3085Z" fill="#FAD4D1"/>
<g filter="url(#filter0_d_14930_133310)">
<ellipse cx="58.7887" cy="90.3981" rx="13.9684" ry="13.9684" fill="url(#paint7_linear_14930_133310)"/>
<path d="M51.5977 93.902H62.3976M51.5977 93.902L54.7476 90.752M51.5977 93.902L54.7476 97.052M54.2977 86.9781H65.9976M65.9976 86.9781L62.8476 83.8281M65.9976 86.9781L62.8476 90.1281" stroke="#FAD4D1" stroke-width="0.5" stroke-linecap="round" stroke-linejoin="round"/>
</g>
<path d="M13.7203 70.7027C13.7203 69.3992 12.6663 68.3448 11.3633 68.3448V68.3188C12.6663 68.3188 13.7203 67.2644 13.7203 65.9609H13.748C13.748 67.2644 14.802 68.3188 16.105 68.3188V68.3448C14.802 68.3448 13.748 69.3992 13.748 70.7027H13.7203Z" fill="#D14A61"/>
<path d="M100.548 65.5698C100.548 64.2664 99.4944 63.212 98.1914 63.212V63.186C99.4944 63.186 100.548 62.1316 100.548 60.8281H100.576C100.576 62.1316 101.63 63.186 102.933 63.186V63.212C101.63 63.212 100.576 64.2664 100.576 65.5698H100.548Z" fill="#D14A61"/>
<path d="M71.5929 23.3753C71.5929 21.6164 70.1705 20.1935 68.4121 20.1935V20.1584C70.1705 20.1584 71.5929 18.7355 71.5929 16.9766H71.6301C71.6301 18.7355 73.0525 20.1584 74.8109 20.1584V20.1935C73.0525 20.1935 71.6301 21.6164 71.6301 23.3753H71.5929Z" fill="#D14A61"/>
</g>
<defs>
<filter id="filter0_d_14930_133310" x="41.487" y="75.3186" width="34.6032" height="34.6042" filterUnits="userSpaceOnUse" color-interpolation-filters="sRGB">
<feFlood flood-opacity="0" result="BackgroundImageFix"/>
<feColorMatrix in="SourceAlpha" type="matrix" values="0 0 0 0 0 0 0 0 0 0 0 0 0 0 0 0 0 0 127 0" result="hardAlpha"/>
<feOffset dy="2.22222"/>
<feGaussianBlur stdDeviation="1.66667"/>
<feComposite in2="hardAlpha" operator="out"/>
<feColorMatrix type="matrix" values="0 0 0 0 0.552941 0 0 0 0 0.121569 0 0 0 0 0.196078 0 0 0 0.4 0"/>
<feBlend mode="normal" in2="BackgroundImageFix" result="effect1_dropShadow_14930_133310"/>
<feBlend mode="normal" in="SourceGraphic" in2="effect1_dropShadow_14930_133310" result="shape"/>
</filter>
<linearGradient id="paint0_linear_14930_133310" x1="99.6674" y1="30.5328" x2="87.8851" y2="44.7954" gradientUnits="userSpaceOnUse">
<stop stop-color="#FFF281"/>
<stop offset="1" stop-color="#FCFCFC" stop-opacity="0"/>
</linearGradient>
<linearGradient id="paint1_linear_14930_133310" x1="35.5077" y1="42.5426" x2="35.1349" y2="50.6084" gradientUnits="userSpaceOnUse">
<stop stop-color="#FFF281"/>
<stop offset="1" stop-color="#FCFCFC" stop-opacity="0"/>
</linearGradient>
<linearGradient id="paint2_linear_14930_133310" x1="27.6559" y1="51.1446" x2="2.17554" y2="83.8522" gradientUnits="userSpaceOnUse">
<stop stop-color="#FFF281"/>
<stop offset="1" stop-color="#FCFCFC" stop-opacity="0"/>
</linearGradient>
<linearGradient id="paint3_linear_14930_133310" x1="43.9334" y1="45.2374" x2="20.5421" y2="91.9672" gradientUnits="userSpaceOnUse">
<stop stop-color="#FFF281"/>
<stop offset="1" stop-color="#FCFCFC" stop-opacity="0"/>
</linearGradient>
<linearGradient id="paint4_linear_14930_133310" x1="81.7908" y1="53.1545" x2="82.1082" y2="60.0203" gradientUnits="userSpaceOnUse">
<stop stop-color="#FFF281"/>
<stop offset="1" stop-color="#FCFCFC" stop-opacity="0"/>
</linearGradient>
<linearGradient id="paint5_linear_14930_133310" x1="88.4747" y1="60.3678" x2="110.164" y2="88.2093" gradientUnits="userSpaceOnUse">
<stop stop-color="#FFF281"/>
<stop offset="1" stop-color="#FCFCFC" stop-opacity="0"/>
</linearGradient>
<linearGradient id="paint6_linear_14930_133310" x1="74.6175" y1="55.3559" x2="94.5287" y2="95.1336" gradientUnits="userSpaceOnUse">
<stop stop-color="#FFF281"/>
<stop offset="1" stop-color="#FCFCFC" stop-opacity="0"/>
</linearGradient>
<linearGradient id="paint7_linear_14930_133310" x1="58.7867" y1="76.7766" x2="58.7887" y2="104.366" gradientUnits="userSpaceOnUse">
<stop stop-color="#D24C64"/>
<stop offset="0.280769" stop-color="#D24C64"/>
<stop offset="1" stop-color="#FF5746"/>
</linearGradient>
</defs>
</svg>
